<svg width="1800" height="27" viewBox="0 0 1800 27" fill="none" xmlns="http://www.w3.org/2000/svg">
<path d="M36.5 9C38.9853 9 41 11.0147 41 13.5C41 15.9853 38.9853 18 36.5 18C35.4354 18 34.4573 17.6303 33.6869 17.0122C32.1204 15.7554 30.5084 14 28.5 14C26.4916 14 24.8796 15.7554 23.3131 17.0122C22.5427 17.6303 21.5646 18 20.5 18C19.4354 18 18.4573 17.6303 17.6869 17.0122C16.1204 15.7554 14.5084 14 12.5 14C10.4916 14 8.87961 15.7554 7.31306 17.0122C6.54272 17.6303 5.56462 18 4.5 18C2.01472 18 0 15.9853 0 13.5C0 11.0147 2.01472 9 4.5 9C5.56462 9 6.54271 9.36972 7.31306 9.98777C8.87961 11.2446 10.4916 13 12.5 13C14.5084 13 16.1204 11.2446 17.6869 9.98777C18.4573 9.36972 19.4354 9 20.5 9C21.5646 9 22.5427 9.36972 23.3131 9.98777C24.8796 11.2446 26.4916 13 28.5 13C30.5084 13 32.1204 11.2446 33.6869 9.98777C34.4573 9.36972 35.4354 9 36.5 9Z" fill="#0A0F13"/>
<rect opacity="0.2" x="41" y="13" width="1737" height="1" fill="#0A0F13"/>
<path d="M1794.58 7.91952C1795.7 9.03601 1795.7 10.8462 1794.58 11.9627C1794.12 12.423 1793.54 12.6935 1792.94 12.7742C1791.6 12.9548 1789.98 12.8598 1789.02 13.8157C1788.06 14.7717 1788.16 16.3979 1787.98 17.7378C1787.9 18.3366 1787.63 18.9149 1787.17 19.3752C1786.05 20.4916 1784.24 20.4916 1783.12 19.3752C1782.01 18.2587 1782.01 16.4485 1783.12 15.332C1783.58 14.8717 1784.16 14.6012 1784.76 14.5204C1786.1 14.3397 1787.73 14.4347 1788.68 13.4788C1789.64 12.5228 1789.54 10.8966 1789.72 9.55679C1789.81 8.95795 1790.08 8.3798 1790.54 7.91952C1791.65 6.80304 1793.46 6.80304 1794.58 7.91952Z" fill="#0A0F13"/>
<path d="M1794.58 19.3752C1793.46 20.4916 1791.65 20.4916 1790.54 19.3752C1790.08 18.9149 1789.81 18.3367 1789.72 17.7379C1789.54 16.3981 1789.64 14.7719 1788.68 13.8159C1787.73 12.8599 1786.1 12.955 1784.76 12.7743C1784.16 12.6935 1783.58 12.423 1783.12 11.9627C1782.01 10.8462 1782.01 9.03601 1783.12 7.91952C1784.24 6.80304 1786.05 6.80304 1787.17 7.91952C1787.63 8.37982 1787.9 8.95803 1787.98 9.55692C1788.16 10.8967 1788.06 12.523 1789.02 13.479C1789.98 14.4349 1791.6 14.3398 1792.94 14.5205C1793.54 14.6012 1794.12 14.8717 1794.58 15.332C1795.7 16.4485 1795.7 18.2587 1794.58 19.3752Z" fill="#0A0F13"/>
</svg>
