<svg width="24" height="24" viewBox="0 0 24 24" fill="none" xmlns="http://www.w3.org/2000/svg">
<path d="M12.002 6C13.5653 6 13.7661 6.00663 14.3877 6.03613C15.0226 6.06416 15.4672 6.1675 15.8604 6.31934C16.2745 6.47537 16.652 6.72132 16.9639 7.03711L16.791 7.21289L16.9668 7.04004L17.0811 7.1582C17.3442 7.44542 17.5479 7.77917 17.6865 8.14551C17.8387 8.53712 17.9427 8.98432 17.9707 9.61914C17.9979 10.2386 18 10.4394 18 12.001C18 13.5645 17.993 13.7648 17.9658 14.3838C17.9378 15.0192 17.8346 15.464 17.6826 15.8574C17.3586 16.6954 16.6956 17.3585 15.8574 17.6826C15.4656 17.835 15.0182 17.9378 14.3828 17.9658C13.7636 17.9931 13.5638 18 12 18C10.4362 18 10.2363 17.9931 9.61719 17.9658C8.98188 17.9378 8.53692 17.8345 8.14355 17.6826C7.72911 17.5264 7.35199 17.28 7.04004 16.9639L7.21387 16.7891L7.03809 16.9619L7.03906 16.9639C6.72261 16.6519 6.47605 16.2757 6.31738 15.8564C6.16534 15.465 6.06218 15.0182 6.03418 14.3838C6.00698 13.7648 6 13.5645 6 12.001C6 10.4381 6.00663 10.2376 6.03613 9.61621C6.06417 8.98134 6.16745 8.53675 6.31934 8.14355C6.45611 7.78085 6.66167 7.44617 6.92285 7.15918L7.03711 7.04102L7.21387 7.21289L7.04004 7.03711C7.35238 6.71849 7.72772 6.47543 8.14551 6.31738C8.53699 6.16537 8.98435 6.06219 9.61914 6.03418C10.2383 6.00699 10.4384 6 12.002 6ZM12 9.1582C10.4312 9.15837 9.15837 10.4311 9.1582 12C9.1582 13.569 10.4311 14.8426 12 14.8428C13.5691 14.8428 14.8428 13.5691 14.8428 12C14.8426 10.431 13.569 9.1582 12 9.1582ZM15.4736 7.2627C14.7765 7.26291 14.2112 7.82802 14.2109 8.52539C14.2109 9.22283 14.7763 9.78884 15.4736 9.78906C16.1713 9.78906 16.7373 9.22299 16.7373 8.52539C16.7371 7.82785 16.1711 7.2627 15.4736 7.2627Z" fill="#EFF3F5"/>
</svg>
