<svg width="24" height="24" viewBox="0 0 24 24" fill="none" xmlns="http://www.w3.org/2000/svg">
<path d="M15.7547 8.56637C15.6768 8.52451 15.601 8.47862 15.5275 8.42888C15.3139 8.282 15.1181 8.10893 14.9442 7.9134C14.5091 7.39568 14.3467 6.87046 14.2868 6.50272H14.2892C14.2392 6.19749 14.2599 6 14.263 6H12.2815V13.9691C12.2815 14.0761 12.2815 14.1818 12.2772 14.2863C12.2772 14.2993 12.2759 14.3113 12.2752 14.3253C12.2752 14.3311 12.2752 14.3371 12.274 14.3431C12.274 14.3446 12.274 14.3461 12.274 14.3476C12.2531 14.6335 12.165 14.9097 12.0174 15.1519C11.8698 15.3941 11.6672 15.5949 11.4275 15.7365C11.1776 15.8843 10.8951 15.9619 10.6076 15.9615C9.68438 15.9615 8.93613 15.1785 8.93613 14.2116C8.93613 13.2446 9.68438 12.4617 10.6076 12.4617C10.7824 12.4615 10.9561 12.4901 11.1222 12.5464L11.1246 10.448C10.6202 10.3803 10.1077 10.422 9.61957 10.5705C9.13141 10.719 8.67814 10.9711 8.28836 11.311C7.94682 11.6196 7.65969 11.9879 7.43989 12.3992C7.35624 12.5492 7.04065 13.1519 7.00243 14.1301C6.97839 14.6853 7.13872 15.2605 7.21515 15.4983V15.5033C7.26322 15.6433 7.4495 16.121 7.75308 16.5237C7.99787 16.8468 8.28708 17.1306 8.61141 17.3659V17.3609L8.61621 17.3659C9.57549 18.0439 10.6391 17.9994 10.6391 17.9994C10.8232 17.9917 11.44 17.9994 12.1404 17.6542C12.9172 17.2714 13.3595 16.7012 13.3595 16.7012C13.642 16.3605 13.8667 15.9722 14.0239 15.553C14.2032 15.0628 14.263 14.4748 14.263 14.2398V10.012C14.287 10.027 14.6072 10.2473 14.6072 10.2473C14.6072 10.2473 15.0685 10.5548 15.7881 10.755C16.3044 10.8975 17 10.9275 17 10.9275V8.88161C16.7563 8.9091 16.2614 8.82911 15.7547 8.56637Z" fill="#EFF3F5"/>
</svg>
