<svg width="24" height="24" viewBox="0 0 24 24" fill="none" xmlns="http://www.w3.org/2000/svg">
<path d="M12.002 7.5C12.0259 7.50009 14.4214 7.51569 16.0078 7.62988L16.0293 7.63184C16.0471 7.63419 16.0671 7.6372 16.0889 7.63965C16.352 7.66929 16.8992 7.73068 17.3818 8.23926C17.7995 8.67196 17.901 9.5235 17.9111 9.61914L17.9121 9.62402C17.9157 9.66391 17.9999 10.6114 18 11.5625V12.4521C18 13.4032 17.9157 14.3507 17.9121 14.3906L17.9102 14.4023C17.8984 14.4961 17.7835 15.3288 17.3857 15.7568C16.9085 16.2766 16.3701 16.3331 16.1113 16.3604C16.0867 16.3629 16.0639 16.3655 16.0439 16.3682L16.0225 16.3701C14.436 16.4843 12.0406 16.4999 12.0166 16.5H12.0098C11.888 16.4983 9.01559 16.4554 8.09961 16.3691L8.07227 16.3652C8.04361 16.3602 8.00095 16.3561 7.95215 16.3506C7.64346 16.3156 7.06994 16.2502 6.61621 15.7588C6.20084 15.3263 6.09918 14.4918 6.08887 14.3965L6.08789 14.3906C6.08432 14.3507 6.00002 13.4032 6 12.4521V11.5625C6 10.6114 6.08432 9.66382 6.08789 9.62402L6.08984 9.6123C6.10165 9.51875 6.21646 8.68589 6.61426 8.25781C7.09837 7.73052 7.64021 7.66841 7.90039 7.63867C7.9206 7.63634 7.93917 7.63408 7.95605 7.63184L7.97754 7.62988C9.57823 7.51567 11.9741 7.50009 11.998 7.5H12.002ZM11.1221 10.2061C10.9615 10.1258 10.7716 10.1287 10.6143 10.2139C10.4572 10.2991 10.3634 10.4493 10.3633 10.6162V13.3838C10.3633 13.5502 10.4569 13.7008 10.6133 13.7861C10.6949 13.8307 10.7853 13.8535 10.876 13.8535C10.9591 13.8535 11.0425 13.8346 11.1191 13.7969L13.9111 12.4248C14.0767 12.3434 14.1807 12.1865 14.1816 12.0146C14.1823 11.8427 14.0801 11.6842 13.915 11.6016L11.1221 10.2061Z" fill="#EFF3F5"/>
</svg>
